<svg width="36" height="36" viewBox="0 0 36 36" fill="none" xmlns="http://www.w3.org/2000/svg">
<path d="M17.993 5.41748L32.2031 9.73818V11.3448H3.79688V9.73818L17.993 5.41748ZM17.993 3.80029L2.25 8.59209V12.8917H33.75V8.59209L17.993 3.80029ZM3.97266 29.2288H32.0273V29.7913H3.97266V29.2288Z" fill="black"/>
<path d="M3.97266 13.7495H32.0273V14.312H3.97266V13.7495Z" fill="#E7B343"/>
<path d="M2.2605 30.6491H33.7359V32.196H2.2605V30.6491ZM7.17886 16.7202V26.8206H9.00698V28.3675H4.78823V26.8206H6.61636V16.7202H4.78823V15.1733H9.00698V16.7202H7.17886ZM14.5792 16.7202V26.8206H16.4074V28.3675H12.1886V26.8206H14.0167V16.7202H12.1886V15.1733H16.4074V16.7202H14.5792ZM21.9796 16.7202V26.8206H23.8078V28.3675H19.589V26.8206H21.4171V16.7202H19.589V15.1733H23.8078V16.7202H21.9796ZM29.3835 16.7202V26.8206H31.2117V28.3675H26.9929V26.8206H28.821V16.7202H26.9929V15.1733H31.2117V16.7202H29.3835Z" fill="black"/>
</svg>
