<svg width="34" height="34" viewBox="0 0 34 34" fill="none" xmlns="http://www.w3.org/2000/svg">
<path fill-rule="evenodd" clip-rule="evenodd" d="M27.7702 1.6883C27.3001 -0.406447 24.3302 -0.39134 23.8788 1.70525L23.8339 1.91423C23.3546 4.14023 21.604 5.83239 19.4251 6.21785C17.2631 6.60032 17.2631 9.72111 19.4251 10.1036C21.604 10.489 23.3546 12.1812 23.8339 14.4072L23.8788 14.6162C24.3302 16.7128 27.3001 16.7279 27.7702 14.6331L27.8247 14.3896C28.3223 12.1718 30.0752 10.4919 32.2506 10.107C34.4165 9.72389 34.4165 6.59754 32.2506 6.2144C30.0752 5.82953 28.3223 4.1497 27.8247 1.93184L27.7702 1.6883ZM3.33929 3.66071V12.6607H12.3393V3.66071H3.33929ZM0.125 3.27806C0.125 1.71419 1.39277 0.446431 2.95663 0.446431H12.7219C14.2858 0.446431 15.5536 1.71419 15.5536 3.27806V13.0434C15.5536 14.6072 14.2858 15.875 12.7219 15.875H2.95663C1.39277 15.875 0.125 14.6072 0.125 13.0434V3.27806ZM3.33929 21.6607V30.6607H12.3393V21.6607H3.33929ZM21.3393 30.6607V21.6607H30.3393V30.6607H21.3393ZM20.9566 18.4464C19.3928 18.4464 18.125 19.7142 18.125 21.2781V31.0433C18.125 32.6073 19.3928 33.875 20.9566 33.875H30.7219C32.2859 33.875 33.5536 32.6073 33.5536 31.0433V21.2781C33.5536 19.7142 32.2859 18.4464 30.7219 18.4464H20.9566Z" fill="black"/>
<rect y="19" width="15" height="15" rx="2" fill="#E7B343"/>
</svg>
