<svg width="38" height="36" viewBox="0 0 38 36" fill="none" xmlns="http://www.w3.org/2000/svg">
<path fill-rule="evenodd" clip-rule="evenodd" d="M37.9276 25.7886C37.2281 24.4272 36.3918 23.1409 35.4313 21.9495C34.7111 21.1114 33.7775 20.4836 32.7298 20.1326C32.2404 20.0167 31.7271 20.0553 31.2605 20.2431C30.4864 20.4801 29.5543 20.9542 28.7327 21.2542C28.2745 21.4281 27.8796 21.6176 27.6268 21.4439C27.3262 21.2134 27.0648 20.936 26.8527 20.6223C26.2208 19.7534 25.6994 18.6633 25.1465 17.9208C24.5092 17.0038 23.6988 16.2202 22.7609 15.6142C22.4212 15.3867 22.0332 15.2418 21.6277 15.191C21.222 15.1402 20.8102 15.1848 20.425 15.3215C20.0397 15.458 19.6917 15.6828 19.4088 15.9778C19.1258 16.2726 18.9159 16.6296 18.7954 17.0202C18.5356 17.8816 18.5973 18.8078 18.9691 19.627C19.2778 20.3399 19.6704 21.0134 20.1382 21.6334C21.1948 22.8562 22.1812 24.1381 23.0926 25.4725C23.3611 25.9149 23.6613 26.373 23.8983 26.8312C24.0261 27.0521 24.1319 27.2848 24.2144 27.5263C23.186 27.0811 22.1307 26.7012 21.0545 26.3888C20.5716 26.299 20.073 26.3483 19.6168 26.531C19.3146 26.6496 19.0511 26.8497 18.8559 27.1091C18.6607 27.3684 18.5413 27.677 18.511 28.0003C18.4632 29.1141 18.7553 30.2161 19.3483 31.16C19.9229 32.0168 20.6914 32.726 21.5917 33.2296C23.4401 34.2724 25.652 34.3356 27.8321 35.3309C27.9371 35.3801 28.0571 35.3861 28.1664 35.3476C28.2758 35.3092 28.3655 35.2295 28.4167 35.1255C28.4436 35.0728 28.4594 35.0151 28.4637 34.9562C28.4678 34.8972 28.4601 34.838 28.4409 34.7819C28.4218 34.726 28.3915 34.6744 28.3521 34.6302C28.3127 34.5862 28.2648 34.5504 28.2113 34.5251C26.4103 33.6247 24.5461 33.4035 22.9189 32.6767C21.868 32.2193 20.981 31.4534 20.3753 30.4806C20.0868 29.9681 19.8991 29.4051 19.8224 28.8218C19.8224 28.3952 19.8222 27.9372 20.1224 27.795C20.4972 27.6927 20.8966 27.732 21.2442 27.9055C22.4573 28.5173 23.7493 28.9586 25.0833 29.2168C25.1883 29.2189 25.2928 29.2 25.3903 29.1612C25.488 29.1224 25.577 29.0647 25.652 28.9912C25.7271 28.9176 25.7866 28.8297 25.8273 28.7329C25.868 28.636 25.8891 28.532 25.8889 28.4269C25.8872 28.0242 25.8501 27.6224 25.7784 27.2262C25.663 26.8228 25.5095 26.4314 25.3202 26.0571C25.0675 25.5674 24.7673 25.0933 24.4987 24.6353C23.5612 23.2343 22.5432 21.8891 21.4495 20.6065C21.0599 20.0933 20.7312 19.5366 20.4701 18.9476C20.2891 18.5526 20.2233 18.1145 20.2804 17.6838C20.3046 17.5119 20.3669 17.3477 20.4625 17.2028C20.5581 17.0579 20.6848 16.9362 20.8333 16.8464C21.3232 16.562 21.8288 16.8464 22.3026 17.1466C22.8964 17.6016 23.4276 18.1328 23.8825 18.7264C24.4512 19.4375 25.0043 20.5275 25.652 21.3649C25.9711 21.7962 26.361 22.17 26.8053 22.4709C27.0408 22.6376 27.3091 22.7522 27.5926 22.8067C27.876 22.8612 28.1678 22.8543 28.4484 22.7867C29.3307 22.4891 30.1913 22.1301 31.0235 21.7124C31.4138 21.4613 31.871 21.3347 32.3348 21.3491C33.1912 21.607 33.9612 22.0931 34.5624 22.7552C35.5012 23.8621 36.322 25.064 37.0112 26.3415C37.0438 26.3982 37.0875 26.4476 37.1394 26.4871C37.1915 26.5266 37.2509 26.5554 37.3142 26.5715C37.3776 26.5877 37.4434 26.5912 37.508 26.5814C37.5728 26.5717 37.6347 26.5492 37.6906 26.5152C37.7574 26.4871 37.8174 26.4449 37.8665 26.3915C37.9156 26.3382 37.9526 26.275 37.9751 26.2059C37.9976 26.1371 38.0049 26.0641 37.9968 25.992C37.9886 25.92 37.965 25.8506 37.9276 25.7886Z" fill="black"/>
<path fill-rule="evenodd" clip-rule="evenodd" d="M15.8094 19.1688H12.4917C11.607 19.1688 10.7381 19.2637 9.15819 19.39C8.02291 19.53 6.87328 19.5032 5.74569 19.311C5.05267 19.1663 4.40657 18.8515 3.86564 18.3947C3.04484 17.5719 2.41218 16.5807 2.01124 15.4898C1.61031 14.3988 1.45065 13.2339 1.54324 12.0753C1.49524 9.69676 2.11951 7.35297 3.34428 5.31346C4.46484 4.07915 5.96666 3.25593 7.60993 2.97525C10.2559 2.44797 12.9565 2.24635 15.6514 2.3749C17.7843 2.3749 20.0277 2.18531 22.2553 2.20112C23.6813 2.19713 25.1044 2.32938 26.5052 2.59608C27.4525 2.81466 28.3417 3.23497 29.112 3.82837C29.8431 4.3956 30.3924 5.16448 30.6918 6.04019C31.0501 8.35406 31.0501 10.7093 30.6918 13.0232C30.5659 14.5476 29.9571 15.992 28.9539 17.1466C28.864 17.2432 28.814 17.3702 28.814 17.5021C28.814 17.6341 28.864 17.7611 28.9539 17.8575C29.0486 17.9512 29.1762 18.0037 29.3094 18.0037C29.4426 18.0037 29.5702 17.9512 29.6649 17.8575C30.8503 16.5666 31.6017 14.9369 31.8134 13.197C32.2724 10.6943 32.3312 8.13467 31.9873 5.61363C31.6489 4.46174 30.9651 3.4415 30.0282 2.69087C29.0966 1.96697 28.0182 1.45481 26.8685 1.19C25.3618 0.867695 23.8274 0.693085 22.2868 0.668655H15.6514C12.824 0.529687 9.99018 0.741963 7.21496 1.30059C5.18543 1.6729 3.35127 2.74656 2.033 4.33393C0.618366 6.66193 -0.0845616 9.35283 0.0107743 12.0753C-0.0550224 13.4461 0.181146 14.8146 0.702577 16.084C1.22401 17.3535 2.01797 18.4929 3.02831 19.4217C3.73136 19.9923 4.56906 20.3731 5.46131 20.5275C6.70809 20.7091 7.9746 20.7091 9.2214 20.5275C10.8013 20.3696 11.6228 20.2748 12.4917 20.2274C13.3606 20.1799 14.2296 20.1168 15.8094 20.0378C15.8667 20.0378 15.9236 20.0264 15.9765 20.0039C16.0292 19.9814 16.077 19.9486 16.1167 19.9073C16.1566 19.866 16.1877 19.817 16.2081 19.7635C16.2287 19.71 16.2382 19.6527 16.236 19.5954C16.236 19.4823 16.191 19.3739 16.111 19.2938C16.0311 19.2138 15.9226 19.1688 15.8094 19.1688Z" fill="black"/>
<path fill-rule="evenodd" clip-rule="evenodd" d="M8.88964 6.59315C8.66652 6.23606 8.3398 5.95551 7.95305 5.78896C7.56632 5.62241 7.13798 5.57778 6.72522 5.66104C6.36282 5.6802 6.01285 5.79966 5.71436 6.0061C5.41587 6.21252 5.1806 6.4978 5.03476 6.83015C4.68714 8.03791 4.68714 9.31924 5.03476 10.527L5.30334 11.5855L5.72991 12.8652L6.14067 13.8763C6.10869 13.9815 6.10972 14.0939 6.14362 14.1984C6.17752 14.3029 6.24266 14.3945 6.33026 14.4609C6.74088 14.7184 7.20523 14.878 7.68738 14.9272C8.16954 14.9765 8.65658 14.9143 9.11082 14.7453C10.0011 14.4575 10.7833 13.9066 11.3542 13.1654C11.8129 12.5565 12.0523 11.8105 12.0336 11.0484C12.01 10.4678 11.7931 9.91176 11.4174 9.46852C11.1153 9.17278 10.7568 8.9407 10.3633 8.78601C9.96982 8.63133 9.54929 8.5572 9.12662 8.568C9.29536 7.90311 9.21088 7.19924 8.88964 6.59315ZM6.07748 9.6265C6.02218 9.13303 6.02218 8.63491 6.07748 8.14143C6.15648 7.65167 6.31446 7.1935 6.85162 7.16192C7.38877 7.13031 7.48356 7.3041 7.53095 7.57268C7.59205 8.02886 7.47926 8.49133 7.21498 8.86817C6.78975 9.04388 6.40324 9.30156 6.07748 9.6265ZM10.3273 10.527C10.4364 10.6401 10.522 10.7738 10.5789 10.9203C10.6359 11.0667 10.6631 11.2231 10.6591 11.3802C10.6354 11.7618 10.5158 12.1313 10.3115 12.4545C9.92061 13.0109 9.36957 13.4353 8.73166 13.671C8.17885 13.8916 7.56241 13.8916 7.00961 13.671L6.64623 12.5808L6.45664 11.7277C6.60279 11.6532 6.7405 11.5631 6.86741 11.4591L7.32558 11.1274C7.58941 10.937 7.83294 10.7199 8.05231 10.4796L8.33669 10.1479H8.43149C8.75476 10.0547 9.0957 10.0405 9.4256 10.1064C9.7555 10.1724 10.0648 10.3167 10.3273 10.527Z" fill="black"/>
<path fill-rule="evenodd" clip-rule="evenodd" d="M18.2265 6.65633C18.2118 6.59262 18.1844 6.5325 18.1461 6.47955C18.1076 6.42659 18.059 6.38185 18.0031 6.34798C17.9471 6.31411 17.885 6.29179 17.8203 6.28235C17.7555 6.2729 17.6896 6.27651 17.6263 6.29297C17.5625 6.30775 17.5025 6.33514 17.4494 6.37352C17.3966 6.41191 17.3517 6.46052 17.3179 6.51648C17.284 6.57243 17.2617 6.63461 17.2523 6.69934C17.2428 6.76406 17.2465 6.83001 17.2629 6.89333C17.4121 7.75906 17.4545 8.63982 17.3893 9.5159C17.3453 10.2973 17.112 11.0563 16.7099 11.7277C16.6153 11.8642 16.4936 11.9796 16.3522 12.0666C16.2108 12.1536 16.0528 12.2104 15.8884 12.2333C15.7605 12.259 15.628 12.249 15.5054 12.2044C15.3828 12.1598 15.2748 12.0824 15.1933 11.9805C14.9136 11.6055 14.7047 11.1825 14.5771 10.7324C14.4272 10.2157 14.3215 9.68716 14.2611 9.15252C14.2135 8.70616 14.2135 8.25601 14.2611 7.80965C14.3105 7.34266 14.3843 6.8786 14.4823 6.41936C14.5006 6.31026 14.4774 6.19827 14.4171 6.10546C14.3569 6.01266 14.2641 5.94578 14.1571 5.91802C14.05 5.89027 13.9364 5.90363 13.8387 5.95549C13.741 6.00734 13.6662 6.09393 13.6292 6.19818C13.4347 6.76821 13.2712 7.34834 13.1394 7.93603C13.0532 8.35203 13.0056 8.77515 12.9972 9.19993C12.951 9.95297 13.0149 10.7087 13.1868 11.4433C13.3102 12.0059 13.535 12.5413 13.8504 13.0232C14.1048 13.3829 14.4582 13.661 14.8677 13.8236C15.2772 13.9863 15.7251 14.0265 16.157 13.9395C16.5506 13.8694 16.9246 13.7161 17.2542 13.49C17.5839 13.2639 17.8614 12.9701 18.0687 12.6282C18.4536 11.8574 18.6588 11.0094 18.6689 10.1478C18.7049 8.96805 18.5556 7.78992 18.2265 6.65633Z" fill="black"/>
<path fill-rule="evenodd" clip-rule="evenodd" d="M22.6502 10.9693C22.6502 11.9489 22.8556 13.197 22.9031 13.4971C22.8899 13.5699 22.8931 13.6447 22.9121 13.7161C22.9311 13.7876 22.9655 13.854 23.013 13.9106C23.0605 13.9673 23.1197 14.0129 23.1867 14.0442C23.2538 14.0755 23.3268 14.0917 23.4007 14.0917C23.4747 14.0917 23.5477 14.0755 23.6146 14.0442C23.6816 14.0129 23.7408 13.9673 23.7883 13.9106C23.8358 13.854 23.8702 13.7876 23.8892 13.7161C23.9082 13.6447 23.9113 13.5699 23.8984 13.4971L24.2776 10.3374L25.2885 9.05771C25.6677 8.42577 26.0153 7.82542 26.442 7.24087C26.6057 6.99273 26.7851 6.75526 26.9791 6.52994C27.0212 6.48875 27.0544 6.43959 27.0772 6.38533C27.1 6.33107 27.1119 6.27282 27.1119 6.21397C27.1119 6.15511 27.1 6.09685 27.0772 6.04259C27.0544 5.98834 27.0212 5.93918 26.9791 5.89798C26.8966 5.81788 26.786 5.77307 26.6709 5.77307C26.556 5.77307 26.4455 5.81788 26.363 5.89798C25.9996 6.16656 25.6836 6.45094 25.3675 6.73531C25.0517 7.01969 24.4671 7.60424 23.993 8.0624C23.8194 8.26229 23.629 8.44726 23.4243 8.61536C23.3138 8.44157 23.219 8.25199 23.0926 8.0782C22.9655 7.89688 22.8283 7.72282 22.6819 7.55685C22.5467 7.38779 22.3988 7.22934 22.2395 7.08288C21.8603 6.71952 21.4496 6.45094 21.0704 6.05598C21.005 5.97026 20.9105 5.91141 20.8047 5.89048C20.6988 5.86954 20.589 5.88799 20.4959 5.94233C20.4027 5.99667 20.3327 6.08317 20.2988 6.18555C20.2649 6.28794 20.2697 6.39917 20.312 6.49833C20.4898 7.13532 20.7613 7.74233 21.1177 8.29939C21.3465 8.59943 21.606 8.87477 21.892 9.12092C22.1268 9.33788 22.3806 9.5335 22.6502 9.70547C22.6003 10.1253 22.6003 10.5495 22.6502 10.9693Z" fill="black"/>
</svg>
