<svg width="307" height="276" viewBox="0 0 307 276" fill="none" xmlns="http://www.w3.org/2000/svg">
<line y1="217.5" x2="307" y2="217.5" stroke="black"/>
<rect x="29" y="114" width="100" height="103" fill="#3C3C3C"/>
<rect x="164" y="27" width="100" height="190" fill="#2CFF85"/>
<path d="M170.078 10.7344V12H163.094V0.726562H170.078V1.99219H164.5V5.60938H169.789V6.85938H164.5V10.7344H170.078ZM174.906 10.9844C175.547 10.9844 176.083 10.7865 176.516 10.3906C176.953 9.98958 177.172 9.4974 177.172 8.91406V8.25L175 8.38281C174.453 8.41927 174.029 8.55208 173.727 8.78125C173.43 9.01042 173.281 9.31771 173.281 9.70312C173.281 10.0885 173.43 10.3984 173.727 10.6328C174.023 10.8672 174.417 10.9844 174.906 10.9844ZM174.602 12.1406C173.794 12.1406 173.141 11.9167 172.641 11.4688C172.146 11.0208 171.898 10.4323 171.898 9.70312C171.898 9.00521 172.154 8.44792 172.664 8.03125C173.18 7.61458 173.906 7.38021 174.844 7.32812L177.172 7.19531V6.51562C177.172 6.02083 177.016 5.63281 176.703 5.35156C176.391 5.07031 175.953 4.92969 175.391 4.92969C174.875 4.92969 174.456 5.04427 174.133 5.27344C173.81 5.4974 173.604 5.8125 173.516 6.21875H172.203C172.25 5.49479 172.562 4.90104 173.141 4.4375C173.724 3.96875 174.484 3.73438 175.422 3.73438C176.375 3.73438 177.13 3.97396 177.688 4.45312C178.25 4.93229 178.531 5.57552 178.531 6.38281V12H177.242V10.6016H177.211C176.966 11.0651 176.607 11.4375 176.133 11.7188C175.659 12 175.148 12.1406 174.602 12.1406ZM180.758 12V3.875H182.039V5.20312H182.07C182.206 4.75 182.448 4.39323 182.797 4.13281C183.151 3.86719 183.565 3.73438 184.039 3.73438C184.148 3.73438 184.331 3.7526 184.586 3.78906V5.10938C184.44 5.05729 184.198 5.03125 183.859 5.03125C183.333 5.03125 182.911 5.20573 182.594 5.55469C182.276 5.90365 182.117 6.36458 182.117 6.9375V12H180.758ZM186.195 12V3.875H187.477V5.17188H187.508C187.742 4.71875 188.078 4.36719 188.516 4.11719C188.953 3.86198 189.477 3.73438 190.086 3.73438C190.971 3.73438 191.661 4.0026 192.156 4.53906C192.651 5.07031 192.898 5.79948 192.898 6.72656V12H191.539V6.96875C191.539 6.30729 191.383 5.80469 191.07 5.46094C190.758 5.11198 190.292 4.9375 189.672 4.9375C189.031 4.9375 188.518 5.14583 188.133 5.5625C187.747 5.97917 187.555 6.53125 187.555 7.21875V12H186.195ZM205.586 3.875V12H204.297V10.6797H204.266C203.76 11.6536 202.901 12.1406 201.688 12.1406C200.807 12.1406 200.117 11.875 199.617 11.3438C199.122 10.8073 198.875 10.0755 198.875 9.14844V3.875H200.234V8.90625C200.234 10.2604 200.859 10.9375 202.109 10.9375C202.766 10.9375 203.281 10.7318 203.656 10.3203C204.036 9.90365 204.227 9.34635 204.227 8.64844V3.875H205.586ZM211.797 3.73438C212.839 3.73438 213.677 4.11719 214.312 4.88281C214.953 5.64844 215.273 6.66667 215.273 7.9375C215.273 9.20312 214.956 10.2214 214.32 10.9922C213.685 11.7578 212.854 12.1406 211.828 12.1406C211.255 12.1406 210.742 12.0104 210.289 11.75C209.836 11.4896 209.487 11.1328 209.242 10.6797H209.211V14.7109H207.852V3.875H209.141V5.25H209.172C209.427 4.78125 209.784 4.41146 210.242 4.14062C210.701 3.86979 211.219 3.73438 211.797 3.73438ZM211.531 10.9453C212.255 10.9453 212.828 10.6745 213.25 10.1328C213.672 9.59115 213.883 8.85938 213.883 7.9375C213.883 7.01562 213.672 6.28385 213.25 5.74219C212.828 5.20052 212.255 4.92969 211.531 4.92969C210.833 4.92969 210.271 5.20573 209.844 5.75781C209.417 6.3099 209.203 7.03646 209.203 7.9375C209.203 8.84375 209.417 9.57292 209.844 10.125C210.271 10.6719 210.833 10.9453 211.531 10.9453ZM217.586 1.91406H218.945V3.875H220.523V4.99219H218.945V9.82031C218.945 10.1901 219.026 10.4635 219.188 10.6406C219.349 10.8125 219.604 10.8984 219.953 10.8984C220.172 10.8984 220.359 10.8854 220.516 10.8594V12C220.339 12.0417 220.052 12.0625 219.656 12.0625C218.911 12.0625 218.38 11.8958 218.062 11.5625C217.745 11.2292 217.586 10.6719 217.586 9.89062V4.99219H216.375V3.875H217.586V1.91406ZM225.609 12.1406C224.474 12.1406 223.562 11.763 222.875 11.0078C222.188 10.2474 221.844 9.22396 221.844 7.9375C221.844 6.65104 222.188 5.63021 222.875 4.875C223.562 4.11458 224.474 3.73438 225.609 3.73438C226.74 3.73438 227.648 4.11458 228.336 4.875C229.023 5.63021 229.367 6.65104 229.367 7.9375C229.367 9.21875 229.023 10.2396 228.336 11C227.648 11.7604 226.74 12.1406 225.609 12.1406ZM223.867 10.1484C224.299 10.6797 224.88 10.9453 225.609 10.9453C226.339 10.9453 226.917 10.6823 227.344 10.1562C227.771 9.625 227.984 8.88542 227.984 7.9375C227.984 6.98958 227.771 6.2526 227.344 5.72656C226.917 5.19531 226.339 4.92969 225.609 4.92969C224.88 4.92969 224.299 5.19531 223.867 5.72656C223.44 6.25781 223.227 6.99479 223.227 7.9375C223.227 8.88021 223.44 9.61719 223.867 10.1484ZM239.133 12.1953C238.289 12.1953 237.544 11.9766 236.898 11.5391C236.253 11.0964 235.755 10.4688 235.406 9.65625C235.036 8.80208 234.852 7.76823 234.852 6.55469C234.852 4.65365 235.234 3.17448 236 2.11719C236.771 1.0599 237.846 0.53125 239.227 0.53125C240.185 0.53125 241.003 0.796875 241.68 1.32812C242.357 1.85938 242.786 2.56771 242.969 3.45312H241.539C241.388 2.94271 241.102 2.53646 240.68 2.23438C240.258 1.92708 239.768 1.77344 239.211 1.77344C238.268 1.77344 237.539 2.17708 237.023 2.98438C236.508 3.79167 236.237 4.94531 236.211 6.44531H236.234C236.49 5.89323 236.904 5.45052 237.477 5.11719C238.049 4.78385 238.685 4.61719 239.383 4.61719C240.456 4.61719 241.346 4.97135 242.055 5.67969C242.768 6.38802 243.125 7.27604 243.125 8.34375C243.125 9.45833 242.747 10.3802 241.992 11.1094C241.242 11.8333 240.289 12.1953 239.133 12.1953ZM237.289 10.1953C237.789 10.6953 238.398 10.9453 239.117 10.9453C239.836 10.9453 240.445 10.6979 240.945 10.2031C241.445 9.70833 241.695 9.10417 241.695 8.39062C241.695 7.65104 241.456 7.04427 240.977 6.57031C240.497 6.09115 239.885 5.85156 239.141 5.85156C238.396 5.85156 237.776 6.08854 237.281 6.5625C236.792 7.03646 236.547 7.63281 236.547 8.35156C236.547 9.07552 236.794 9.6901 237.289 10.1953ZM249.008 12.1875C247.93 12.1875 247.029 11.8828 246.305 11.2734C245.586 10.6641 245.198 9.88021 245.141 8.92188H246.523C246.586 9.52083 246.849 10.0104 247.312 10.3906C247.776 10.7656 248.346 10.9531 249.023 10.9531C249.789 10.9531 250.411 10.7135 250.891 10.2344C251.375 9.75521 251.617 9.13542 251.617 8.375C251.617 7.61458 251.375 6.99219 250.891 6.50781C250.411 6.01823 249.797 5.77344 249.047 5.77344C248.521 5.77344 248.044 5.88542 247.617 6.10938C247.19 6.33333 246.862 6.64323 246.633 7.03906H245.312L245.93 0.726562H252.383V1.97656H247.086L246.742 5.64844H246.773C247.029 5.3099 247.378 5.04427 247.82 4.85156C248.268 4.65885 248.76 4.5625 249.297 4.5625C250.38 4.5625 251.271 4.91927 251.969 5.63281C252.672 6.34115 253.023 7.24219 253.023 8.33594C253.023 9.46615 252.648 10.3906 251.898 11.1094C251.148 11.8281 250.185 12.1875 249.008 12.1875ZM258.555 1.35156C258.987 1.86198 259.203 2.54167 259.203 3.39062C259.203 4.23958 258.987 4.91927 258.555 5.42969C258.122 5.9401 257.549 6.19531 256.836 6.19531C256.122 6.19531 255.549 5.9401 255.117 5.42969C254.685 4.91927 254.469 4.23958 254.469 3.39062C254.469 2.54167 254.685 1.86198 255.117 1.35156C255.549 0.841146 256.122 0.585938 256.836 0.585938C257.549 0.585938 258.122 0.841146 258.555 1.35156ZM256.016 4.75C256.219 5.07812 256.492 5.24219 256.836 5.24219C257.18 5.24219 257.451 5.07812 257.648 4.75C257.852 4.41667 257.953 3.96354 257.953 3.39062C257.953 2.81771 257.852 2.36719 257.648 2.03906C257.451 1.70573 257.18 1.53906 256.836 1.53906C256.492 1.53906 256.219 1.70573 256.016 2.03906C255.818 2.36719 255.719 2.81771 255.719 3.39062C255.719 3.96354 255.818 4.41667 256.016 4.75ZM256.492 12H255.133L259.484 6.05469L263.383 0.726562H264.727L260.492 6.52344L256.492 12ZM264.75 7.27344C265.182 7.78385 265.398 8.46354 265.398 9.3125C265.398 10.1615 265.182 10.8411 264.75 11.3516C264.318 11.862 263.745 12.1172 263.031 12.1172C262.318 12.1172 261.745 11.862 261.312 11.3516C260.88 10.8411 260.664 10.1615 260.664 9.3125C260.664 8.46354 260.88 7.78385 261.312 7.27344C261.745 6.76302 262.318 6.50781 263.031 6.50781C263.745 6.50781 264.318 6.76302 264.75 7.27344ZM262.211 10.6719C262.414 11 262.688 11.1641 263.031 11.1641C263.375 11.1641 263.646 11 263.844 10.6719C264.047 10.3385 264.148 9.88542 264.148 9.3125C264.148 8.73958 264.047 8.28906 263.844 7.96094C263.646 7.6276 263.375 7.46094 263.031 7.46094C262.688 7.46094 262.414 7.6276 262.211 7.96094C262.013 8.28906 261.914 8.73958 261.914 9.3125C261.914 9.88542 262.013 10.3385 262.211 10.6719Z" fill="black"/>
<path d="M47.0391 240.109C47.9714 239.062 49.237 238.539 50.8359 238.539C52.4349 238.539 53.7005 239.062 54.6328 240.109C55.5651 241.156 56.0312 242.576 56.0312 244.367C56.0312 246.159 55.5651 247.578 54.6328 248.625C53.7005 249.667 52.4349 250.188 50.8359 250.188C49.237 250.188 47.9714 249.667 47.0391 248.625C46.1068 247.578 45.6406 246.159 45.6406 244.367C45.6406 242.576 46.1068 241.156 47.0391 240.109ZM53.5703 241.062C52.8984 240.245 51.987 239.836 50.8359 239.836C49.6849 239.836 48.7708 240.245 48.0938 241.062C47.4219 241.875 47.0859 242.977 47.0859 244.367C47.0859 245.753 47.4219 246.854 48.0938 247.672C48.7708 248.484 49.6849 248.891 50.8359 248.891C51.987 248.891 52.8984 248.484 53.5703 247.672C54.2474 246.854 54.5859 245.753 54.5859 244.367C54.5859 242.977 54.2474 241.875 53.5703 241.062ZM64.7422 241.875V250H63.4531V248.68H63.4219C62.9167 249.654 62.0573 250.141 60.8438 250.141C59.9635 250.141 59.2734 249.875 58.7734 249.344C58.2786 248.807 58.0312 248.076 58.0312 247.148V241.875H59.3906V246.906C59.3906 248.26 60.0156 248.938 61.2656 248.938C61.9219 248.938 62.4375 248.732 62.8125 248.32C63.1927 247.904 63.3828 247.346 63.3828 246.648V241.875H64.7422ZM67.0078 250V241.875H68.2891V243.203H68.3203C68.4557 242.75 68.6979 242.393 69.0469 242.133C69.401 241.867 69.8151 241.734 70.2891 241.734C70.3984 241.734 70.5807 241.753 70.8359 241.789V243.109C70.6901 243.057 70.4479 243.031 70.1094 243.031C69.5833 243.031 69.1615 243.206 68.8438 243.555C68.526 243.904 68.3672 244.365 68.3672 244.938V250H67.0078ZM76.4375 238.727H80.4609C81.5182 238.727 82.3828 239.065 83.0547 239.742C83.7318 240.414 84.0703 241.281 84.0703 242.344C84.0703 243.411 83.7318 244.284 83.0547 244.961C82.3776 245.638 81.5078 245.977 80.4453 245.977H77.8438V250H76.4375V238.727ZM77.8438 239.977V244.727H80.0938C80.8958 244.727 81.5182 244.518 81.9609 244.102C82.4036 243.68 82.625 243.094 82.625 242.344C82.625 241.594 82.4036 241.013 81.9609 240.602C81.5234 240.185 80.901 239.977 80.0938 239.977H77.8438ZM85.9766 250V241.875H87.2578V243.203H87.2891C87.4245 242.75 87.6667 242.393 88.0156 242.133C88.3698 241.867 88.7839 241.734 89.2578 241.734C89.3672 241.734 89.5495 241.753 89.8047 241.789V243.109C89.6589 243.057 89.4167 243.031 89.0781 243.031C88.5521 243.031 88.1302 243.206 87.8125 243.555C87.4948 243.904 87.3359 244.365 87.3359 244.938V250H85.9766ZM91.4844 250V241.875H92.8438V250H91.4844ZM92.1641 240.508C91.9349 240.508 91.737 240.424 91.5703 240.258C91.4036 240.091 91.3203 239.893 91.3203 239.664C91.3203 239.43 91.4036 239.232 91.5703 239.07C91.737 238.904 91.9349 238.82 92.1641 238.82C92.3984 238.82 92.599 238.904 92.7656 239.07C92.9323 239.232 93.0156 239.43 93.0156 239.664C93.0156 239.893 92.9323 240.091 92.7656 240.258C92.599 240.424 92.3984 240.508 92.1641 240.508ZM101.93 244.539H100.602C100.497 244.07 100.266 243.685 99.9062 243.383C99.5521 243.081 99.0911 242.93 98.5234 242.93C97.8151 242.93 97.2448 243.203 96.8125 243.75C96.3802 244.292 96.1641 245.021 96.1641 245.938C96.1641 246.87 96.3802 247.604 96.8125 248.141C97.25 248.677 97.8255 248.945 98.5391 248.945C99.0859 248.945 99.5365 248.81 99.8906 248.539C100.25 248.263 100.49 247.878 100.609 247.383H101.945C101.841 248.195 101.474 248.859 100.844 249.375C100.219 249.885 99.4479 250.141 98.5312 250.141C97.3958 250.141 96.487 249.766 95.8047 249.016C95.1224 248.26 94.7812 247.234 94.7812 245.938C94.7812 244.661 95.1224 243.643 95.8047 242.883C96.487 242.117 97.3906 241.734 98.5156 241.734C99.4844 241.734 100.271 242.008 100.875 242.555C101.484 243.102 101.836 243.763 101.93 244.539ZM106.953 242.914C106.323 242.914 105.799 243.133 105.383 243.57C104.971 244.003 104.745 244.56 104.703 245.242H109.117C109.102 244.555 108.896 243.995 108.5 243.562C108.104 243.13 107.589 242.914 106.953 242.914ZM109.086 247.672H110.422C110.302 248.391 109.927 248.982 109.297 249.445C108.672 249.909 107.919 250.141 107.039 250.141C105.878 250.141 104.964 249.766 104.297 249.016C103.63 248.266 103.297 247.25 103.297 245.969C103.297 244.698 103.63 243.674 104.297 242.898C104.969 242.122 105.862 241.734 106.977 241.734C108.07 241.734 108.935 242.102 109.57 242.836C110.206 243.57 110.523 244.555 110.523 245.789V246.305H104.695V246.383C104.695 247.164 104.909 247.789 105.336 248.258C105.763 248.727 106.341 248.961 107.07 248.961C107.581 248.961 108.016 248.844 108.375 248.609C108.734 248.375 108.971 248.062 109.086 247.672ZM52.7031 272V264.992H51.5703V263.875H52.7031V262.969C52.7031 262.188 52.8854 261.609 53.25 261.234C53.6198 260.854 54.1797 260.664 54.9297 260.664C55.2214 260.664 55.4974 260.685 55.7578 260.727V261.828C55.5391 261.797 55.3333 261.781 55.1406 261.781C54.4167 261.781 54.0547 262.18 54.0547 262.977V263.875H55.7188V264.992H54.0625V272H52.7031ZM60.6016 272.141C59.4661 272.141 58.5547 271.763 57.8672 271.008C57.1797 270.247 56.8359 269.224 56.8359 267.938C56.8359 266.651 57.1797 265.63 57.8672 264.875C58.5547 264.115 59.4661 263.734 60.6016 263.734C61.7318 263.734 62.6406 264.115 63.3281 264.875C64.0156 265.63 64.3594 266.651 64.3594 267.938C64.3594 269.219 64.0156 270.24 63.3281 271C62.6406 271.76 61.7318 272.141 60.6016 272.141ZM58.8594 270.148C59.2917 270.68 59.8724 270.945 60.6016 270.945C61.3307 270.945 61.9089 270.682 62.3359 270.156C62.763 269.625 62.9766 268.885 62.9766 267.938C62.9766 266.99 62.763 266.253 62.3359 265.727C61.9089 265.195 61.3307 264.93 60.6016 264.93C59.8724 264.93 59.2917 265.195 58.8594 265.727C58.4323 266.258 58.2188 266.995 58.2188 267.938C58.2188 268.88 58.4323 269.617 58.8594 270.148ZM66.2344 272V263.875H67.5156V265.203H67.5469C67.6823 264.75 67.9245 264.393 68.2734 264.133C68.6276 263.867 69.0417 263.734 69.5156 263.734C69.625 263.734 69.8073 263.753 70.0625 263.789V265.109C69.9167 265.057 69.6745 265.031 69.3359 265.031C68.8099 265.031 68.388 265.206 68.0703 265.555C67.7526 265.904 67.5938 266.365 67.5938 266.938V272H66.2344ZM76.125 275.039C75.8854 275.039 75.6901 275.023 75.5391 274.992V273.852C75.6641 273.878 75.8411 273.891 76.0703 273.891C76.4505 273.891 76.7552 273.789 76.9844 273.586C77.2135 273.388 77.4062 273.052 77.5625 272.578L77.75 272.008L74.75 263.875H76.2031L78.4531 270.641H78.4766L80.7266 263.875H82.1562L78.9609 272.57C78.612 273.518 78.2344 274.167 77.8281 274.516C77.4271 274.865 76.8594 275.039 76.125 275.039ZM86.8672 272.141C85.7318 272.141 84.8203 271.763 84.1328 271.008C83.4453 270.247 83.1016 269.224 83.1016 267.938C83.1016 266.651 83.4453 265.63 84.1328 264.875C84.8203 264.115 85.7318 263.734 86.8672 263.734C87.9974 263.734 88.9062 264.115 89.5938 264.875C90.2812 265.63 90.625 266.651 90.625 267.938C90.625 269.219 90.2812 270.24 89.5938 271C88.9062 271.76 87.9974 272.141 86.8672 272.141ZM85.125 270.148C85.5573 270.68 86.138 270.945 86.8672 270.945C87.5964 270.945 88.1745 270.682 88.6016 270.156C89.0286 269.625 89.2422 268.885 89.2422 267.938C89.2422 266.99 89.0286 266.253 88.6016 265.727C88.1745 265.195 87.5964 264.93 86.8672 264.93C86.138 264.93 85.5573 265.195 85.125 265.727C84.6979 266.258 84.4844 266.995 84.4844 267.938C84.4844 268.88 84.6979 269.617 85.125 270.148ZM99.1719 263.875V272H97.8828V270.68H97.8516C97.3464 271.654 96.487 272.141 95.2734 272.141C94.3932 272.141 93.7031 271.875 93.2031 271.344C92.7083 270.807 92.4609 270.076 92.4609 269.148V263.875H93.8203V268.906C93.8203 270.26 94.4453 270.938 95.6953 270.938C96.3516 270.938 96.8672 270.732 97.2422 270.32C97.6224 269.904 97.8125 269.346 97.8125 268.648V263.875H99.1719ZM103.219 271.82C103.047 271.992 102.836 272.078 102.586 272.078C102.336 272.078 102.125 271.992 101.953 271.82C101.781 271.648 101.695 271.438 101.695 271.188C101.695 270.938 101.781 270.727 101.953 270.555C102.125 270.383 102.336 270.297 102.586 270.297C102.836 270.297 103.047 270.383 103.219 270.555C103.391 270.727 103.477 270.938 103.477 271.188C103.477 271.438 103.391 271.648 103.219 271.82Z" fill="black"/>
<path d="M162.453 239.977V244.297H165.148C165.872 244.297 166.43 244.109 166.82 243.734C167.216 243.359 167.414 242.826 167.414 242.133C167.414 241.456 167.208 240.927 166.797 240.547C166.385 240.167 165.815 239.977 165.086 239.977H162.453ZM162.453 245.539V250H161.047V238.727H165.273C166.362 238.727 167.232 239.034 167.883 239.648C168.539 240.258 168.867 241.07 168.867 242.086C168.867 242.872 168.667 243.552 168.266 244.125C167.865 244.698 167.31 245.096 166.602 245.32L169.211 250H167.562L165.148 245.539H162.453ZM174.188 242.914C173.557 242.914 173.034 243.133 172.617 243.57C172.206 244.003 171.979 244.56 171.938 245.242H176.352C176.336 244.555 176.13 243.995 175.734 243.562C175.339 243.13 174.823 242.914 174.188 242.914ZM176.32 247.672H177.656C177.536 248.391 177.161 248.982 176.531 249.445C175.906 249.909 175.154 250.141 174.273 250.141C173.112 250.141 172.198 249.766 171.531 249.016C170.865 248.266 170.531 247.25 170.531 245.969C170.531 244.698 170.865 243.674 171.531 242.898C172.203 242.122 173.096 241.734 174.211 241.734C175.305 241.734 176.169 242.102 176.805 242.836C177.44 243.57 177.758 244.555 177.758 245.789V246.305H171.93V246.383C171.93 247.164 172.143 247.789 172.57 248.258C172.997 248.727 173.576 248.961 174.305 248.961C174.815 248.961 175.25 248.844 175.609 248.609C175.969 248.375 176.206 248.062 176.32 247.672ZM186.383 244.539H185.055C184.951 244.07 184.719 243.685 184.359 243.383C184.005 243.081 183.544 242.93 182.977 242.93C182.268 242.93 181.698 243.203 181.266 243.75C180.833 244.292 180.617 245.021 180.617 245.938C180.617 246.87 180.833 247.604 181.266 248.141C181.703 248.677 182.279 248.945 182.992 248.945C183.539 248.945 183.99 248.81 184.344 248.539C184.703 248.263 184.943 247.878 185.062 247.383H186.398C186.294 248.195 185.927 248.859 185.297 249.375C184.672 249.885 183.901 250.141 182.984 250.141C181.849 250.141 180.94 249.766 180.258 249.016C179.576 248.26 179.234 247.234 179.234 245.938C179.234 244.661 179.576 243.643 180.258 242.883C180.94 242.117 181.844 241.734 182.969 241.734C183.938 241.734 184.724 242.008 185.328 242.555C185.938 243.102 186.289 243.763 186.383 244.539ZM191.516 250.141C190.38 250.141 189.469 249.763 188.781 249.008C188.094 248.247 187.75 247.224 187.75 245.938C187.75 244.651 188.094 243.63 188.781 242.875C189.469 242.115 190.38 241.734 191.516 241.734C192.646 241.734 193.555 242.115 194.242 242.875C194.93 243.63 195.273 244.651 195.273 245.938C195.273 247.219 194.93 248.24 194.242 249C193.555 249.76 192.646 250.141 191.516 250.141ZM189.773 248.148C190.206 248.68 190.786 248.945 191.516 248.945C192.245 248.945 192.823 248.682 193.25 248.156C193.677 247.625 193.891 246.885 193.891 245.938C193.891 244.99 193.677 244.253 193.25 243.727C192.823 243.195 192.245 242.93 191.516 242.93C190.786 242.93 190.206 243.195 189.773 243.727C189.346 244.258 189.133 244.995 189.133 245.938C189.133 246.88 189.346 247.617 189.773 248.148ZM197.148 250V241.875H198.43V243.172H198.461C198.659 242.729 198.958 242.38 199.359 242.125C199.76 241.865 200.229 241.734 200.766 241.734C201.318 241.734 201.792 241.87 202.188 242.141C202.583 242.406 202.87 242.786 203.047 243.281H203.078C203.302 242.797 203.638 242.419 204.086 242.148C204.539 241.872 205.052 241.734 205.625 241.734C206.427 241.734 207.068 241.977 207.547 242.461C208.031 242.94 208.273 243.583 208.273 244.391V250H206.914V244.703C206.914 244.146 206.766 243.714 206.469 243.406C206.177 243.094 205.763 242.938 205.227 242.938C204.69 242.938 204.25 243.117 203.906 243.477C203.562 243.831 203.391 244.284 203.391 244.836V250H202.031V244.555C202.031 244.065 201.88 243.674 201.578 243.383C201.276 243.086 200.872 242.938 200.367 242.938C199.831 242.938 199.385 243.125 199.031 243.5C198.682 243.875 198.508 244.344 198.508 244.906V250H197.148ZM210.508 250V241.875H211.789V243.172H211.82C212.018 242.729 212.318 242.38 212.719 242.125C213.12 241.865 213.589 241.734 214.125 241.734C214.677 241.734 215.151 241.87 215.547 242.141C215.943 242.406 216.229 242.786 216.406 243.281H216.438C216.661 242.797 216.997 242.419 217.445 242.148C217.898 241.872 218.411 241.734 218.984 241.734C219.786 241.734 220.427 241.977 220.906 242.461C221.391 242.94 221.633 243.583 221.633 244.391V250H220.273V244.703C220.273 244.146 220.125 243.714 219.828 243.406C219.536 243.094 219.122 242.938 218.586 242.938C218.049 242.938 217.609 243.117 217.266 243.477C216.922 243.831 216.75 244.284 216.75 244.836V250H215.391V244.555C215.391 244.065 215.24 243.674 214.938 243.383C214.635 243.086 214.232 242.938 213.727 242.938C213.19 242.938 212.745 243.125 212.391 243.5C212.042 243.875 211.867 244.344 211.867 244.906V250H210.508ZM227.125 242.914C226.495 242.914 225.971 243.133 225.555 243.57C225.143 244.003 224.917 244.56 224.875 245.242H229.289C229.273 244.555 229.068 243.995 228.672 243.562C228.276 243.13 227.76 242.914 227.125 242.914ZM229.258 247.672H230.594C230.474 248.391 230.099 248.982 229.469 249.445C228.844 249.909 228.091 250.141 227.211 250.141C226.049 250.141 225.135 249.766 224.469 249.016C223.802 248.266 223.469 247.25 223.469 245.969C223.469 244.698 223.802 243.674 224.469 242.898C225.141 242.122 226.034 241.734 227.148 241.734C228.242 241.734 229.107 242.102 229.742 242.836C230.378 243.57 230.695 244.555 230.695 245.789V246.305H224.867V246.383C224.867 247.164 225.081 247.789 225.508 248.258C225.935 248.727 226.513 248.961 227.242 248.961C227.753 248.961 228.188 248.844 228.547 248.609C228.906 248.375 229.143 248.062 229.258 247.672ZM232.57 250V241.875H233.852V243.172H233.883C234.117 242.719 234.453 242.367 234.891 242.117C235.328 241.862 235.852 241.734 236.461 241.734C237.346 241.734 238.036 242.003 238.531 242.539C239.026 243.07 239.273 243.799 239.273 244.727V250H237.914V244.969C237.914 244.307 237.758 243.805 237.445 243.461C237.133 243.112 236.667 242.938 236.047 242.938C235.406 242.938 234.893 243.146 234.508 243.562C234.122 243.979 233.93 244.531 233.93 245.219V250H232.57ZM244.586 250.141C243.544 250.141 242.703 249.758 242.062 248.992C241.427 248.227 241.109 247.208 241.109 245.938C241.109 244.672 241.427 243.656 242.062 242.891C242.698 242.12 243.529 241.734 244.555 241.734C245.128 241.734 245.641 241.865 246.094 242.125C246.547 242.385 246.896 242.742 247.141 243.195H247.172V238.727H248.531V250H247.234V248.625H247.211C246.945 249.099 246.586 249.471 246.133 249.742C245.68 250.008 245.164 250.141 244.586 250.141ZM244.844 242.93C244.125 242.93 243.555 243.203 243.133 243.75C242.711 244.292 242.5 245.021 242.5 245.938C242.5 246.859 242.711 247.591 243.133 248.133C243.555 248.674 244.125 248.945 244.844 248.945C245.547 248.945 246.112 248.672 246.539 248.125C246.966 247.573 247.18 246.844 247.18 245.938C247.18 245.031 246.964 244.305 246.531 243.758C246.104 243.206 245.542 242.93 244.844 242.93ZM254.125 242.914C253.495 242.914 252.971 243.133 252.555 243.57C252.143 244.003 251.917 244.56 251.875 245.242H256.289C256.273 244.555 256.068 243.995 255.672 243.562C255.276 243.13 254.76 242.914 254.125 242.914ZM256.258 247.672H257.594C257.474 248.391 257.099 248.982 256.469 249.445C255.844 249.909 255.091 250.141 254.211 250.141C253.049 250.141 252.135 249.766 251.469 249.016C250.802 248.266 250.469 247.25 250.469 245.969C250.469 244.698 250.802 243.674 251.469 242.898C252.141 242.122 253.034 241.734 254.148 241.734C255.242 241.734 256.107 242.102 256.742 242.836C257.378 243.57 257.695 244.555 257.695 245.789V246.305H251.867V246.383C251.867 247.164 252.081 247.789 252.508 248.258C252.935 248.727 253.513 248.961 254.242 248.961C254.753 248.961 255.188 248.844 255.547 248.609C255.906 248.375 256.143 248.062 256.258 247.672ZM262.648 250.141C261.607 250.141 260.766 249.758 260.125 248.992C259.49 248.227 259.172 247.208 259.172 245.938C259.172 244.672 259.49 243.656 260.125 242.891C260.76 242.12 261.591 241.734 262.617 241.734C263.19 241.734 263.703 241.865 264.156 242.125C264.609 242.385 264.958 242.742 265.203 243.195H265.234V238.727H266.594V250H265.297V248.625H265.273C265.008 249.099 264.648 249.471 264.195 249.742C263.742 250.008 263.227 250.141 262.648 250.141ZM262.906 242.93C262.188 242.93 261.617 243.203 261.195 243.75C260.773 244.292 260.562 245.021 260.562 245.938C260.562 246.859 260.773 247.591 261.195 248.133C261.617 248.674 262.188 248.945 262.906 248.945C263.609 248.945 264.174 248.672 264.602 248.125C265.029 247.573 265.242 246.844 265.242 245.938C265.242 245.031 265.026 244.305 264.594 243.758C264.167 243.206 263.604 242.93 262.906 242.93ZM176.758 261.977V266.297H179.453C180.177 266.297 180.734 266.109 181.125 265.734C181.521 265.359 181.719 264.826 181.719 264.133C181.719 263.456 181.513 262.927 181.102 262.547C180.69 262.167 180.12 261.977 179.391 261.977H176.758ZM176.758 267.539V272H175.352V260.727H179.578C180.667 260.727 181.536 261.034 182.188 261.648C182.844 262.258 183.172 263.07 183.172 264.086C183.172 264.872 182.971 265.552 182.57 266.125C182.169 266.698 181.615 267.096 180.906 267.32L183.516 272H181.867L179.453 267.539H176.758ZM188.492 264.914C187.862 264.914 187.339 265.133 186.922 265.57C186.51 266.003 186.284 266.56 186.242 267.242H190.656C190.641 266.555 190.435 265.995 190.039 265.562C189.643 265.13 189.128 264.914 188.492 264.914ZM190.625 269.672H191.961C191.841 270.391 191.466 270.982 190.836 271.445C190.211 271.909 189.458 272.141 188.578 272.141C187.417 272.141 186.503 271.766 185.836 271.016C185.169 270.266 184.836 269.25 184.836 267.969C184.836 266.698 185.169 265.674 185.836 264.898C186.508 264.122 187.401 263.734 188.516 263.734C189.609 263.734 190.474 264.102 191.109 264.836C191.745 265.57 192.062 266.555 192.062 267.789V268.305H186.234V268.383C186.234 269.164 186.448 269.789 186.875 270.258C187.302 270.727 187.88 270.961 188.609 270.961C189.12 270.961 189.555 270.844 189.914 270.609C190.273 270.375 190.51 270.062 190.625 269.672ZM194.375 261.914H195.734V263.875H197.312V264.992H195.734V269.82C195.734 270.19 195.815 270.464 195.977 270.641C196.138 270.812 196.393 270.898 196.742 270.898C196.961 270.898 197.148 270.885 197.305 270.859V272C197.128 272.042 196.841 272.062 196.445 272.062C195.701 272.062 195.169 271.896 194.852 271.562C194.534 271.229 194.375 270.672 194.375 269.891V264.992H193.164V263.875H194.375V261.914ZM201.789 270.984C202.43 270.984 202.966 270.786 203.398 270.391C203.836 269.99 204.055 269.497 204.055 268.914V268.25L201.883 268.383C201.336 268.419 200.911 268.552 200.609 268.781C200.312 269.01 200.164 269.318 200.164 269.703C200.164 270.089 200.312 270.398 200.609 270.633C200.906 270.867 201.299 270.984 201.789 270.984ZM201.484 272.141C200.677 272.141 200.023 271.917 199.523 271.469C199.029 271.021 198.781 270.432 198.781 269.703C198.781 269.005 199.036 268.448 199.547 268.031C200.062 267.615 200.789 267.38 201.727 267.328L204.055 267.195V266.516C204.055 266.021 203.898 265.633 203.586 265.352C203.273 265.07 202.836 264.93 202.273 264.93C201.758 264.93 201.339 265.044 201.016 265.273C200.693 265.497 200.487 265.812 200.398 266.219H199.086C199.133 265.495 199.445 264.901 200.023 264.438C200.607 263.969 201.367 263.734 202.305 263.734C203.258 263.734 204.013 263.974 204.57 264.453C205.133 264.932 205.414 265.576 205.414 266.383V272H204.125V270.602H204.094C203.849 271.065 203.49 271.438 203.016 271.719C202.542 272 202.031 272.141 201.484 272.141ZM207.711 272V263.875H209.07V272H207.711ZM208.391 262.508C208.161 262.508 207.964 262.424 207.797 262.258C207.63 262.091 207.547 261.893 207.547 261.664C207.547 261.43 207.63 261.232 207.797 261.07C207.964 260.904 208.161 260.82 208.391 260.82C208.625 260.82 208.826 260.904 208.992 261.07C209.159 261.232 209.242 261.43 209.242 261.664C209.242 261.893 209.159 262.091 208.992 262.258C208.826 262.424 208.625 262.508 208.391 262.508ZM211.477 272V260.727H212.836V272H211.477ZM219.164 260.727H223.188C224.245 260.727 225.109 261.065 225.781 261.742C226.458 262.414 226.797 263.281 226.797 264.344C226.797 265.411 226.458 266.284 225.781 266.961C225.104 267.638 224.234 267.977 223.172 267.977H220.57V272H219.164V260.727ZM220.57 261.977V266.727H222.82C223.622 266.727 224.245 266.518 224.688 266.102C225.13 265.68 225.352 265.094 225.352 264.344C225.352 263.594 225.13 263.013 224.688 262.602C224.25 262.185 223.628 261.977 222.82 261.977H220.57ZM228.703 272V263.875H229.984V265.203H230.016C230.151 264.75 230.393 264.393 230.742 264.133C231.096 263.867 231.51 263.734 231.984 263.734C232.094 263.734 232.276 263.753 232.531 263.789V265.109C232.385 265.057 232.143 265.031 231.805 265.031C231.279 265.031 230.857 265.206 230.539 265.555C230.221 265.904 230.062 266.365 230.062 266.938V272H228.703ZM234.211 272V263.875H235.57V272H234.211ZM234.891 262.508C234.661 262.508 234.464 262.424 234.297 262.258C234.13 262.091 234.047 261.893 234.047 261.664C234.047 261.43 234.13 261.232 234.297 261.07C234.464 260.904 234.661 260.82 234.891 260.82C235.125 260.82 235.326 260.904 235.492 261.07C235.659 261.232 235.742 261.43 235.742 261.664C235.742 261.893 235.659 262.091 235.492 262.258C235.326 262.424 235.125 262.508 234.891 262.508ZM244.656 266.539H243.328C243.224 266.07 242.992 265.685 242.633 265.383C242.279 265.081 241.818 264.93 241.25 264.93C240.542 264.93 239.971 265.203 239.539 265.75C239.107 266.292 238.891 267.021 238.891 267.938C238.891 268.87 239.107 269.604 239.539 270.141C239.977 270.677 240.552 270.945 241.266 270.945C241.812 270.945 242.263 270.81 242.617 270.539C242.977 270.263 243.216 269.878 243.336 269.383H244.672C244.568 270.195 244.201 270.859 243.57 271.375C242.945 271.885 242.174 272.141 241.258 272.141C240.122 272.141 239.214 271.766 238.531 271.016C237.849 270.26 237.508 269.234 237.508 267.938C237.508 266.661 237.849 265.643 238.531 264.883C239.214 264.117 240.117 263.734 241.242 263.734C242.211 263.734 242.997 264.008 243.602 264.555C244.211 265.102 244.562 265.763 244.656 266.539ZM249.68 264.914C249.049 264.914 248.526 265.133 248.109 265.57C247.698 266.003 247.471 266.56 247.43 267.242H251.844C251.828 266.555 251.622 265.995 251.227 265.562C250.831 265.13 250.315 264.914 249.68 264.914ZM251.812 269.672H253.148C253.029 270.391 252.654 270.982 252.023 271.445C251.398 271.909 250.646 272.141 249.766 272.141C248.604 272.141 247.69 271.766 247.023 271.016C246.357 270.266 246.023 269.25 246.023 267.969C246.023 266.698 246.357 265.674 247.023 264.898C247.695 264.122 248.589 263.734 249.703 263.734C250.797 263.734 251.661 264.102 252.297 264.836C252.932 265.57 253.25 266.555 253.25 267.789V268.305H247.422V268.383C247.422 269.164 247.635 269.789 248.062 270.258C248.49 270.727 249.068 270.961 249.797 270.961C250.307 270.961 250.742 270.844 251.102 270.609C251.461 270.375 251.698 270.062 251.812 269.672Z" fill="black"/>
</svg>
