<svg width="36" height="34" viewBox="0 0 36 34" fill="none" xmlns="http://www.w3.org/2000/svg">
<path d="M16.2973 18.8604L13.4077 15.8521C13.1702 15.5882 12.88 15.4563 12.5369 15.4563C12.1938 15.4563 11.8904 15.575 11.6264 15.8125C11.3626 16.0764 11.2306 16.3799 11.2306 16.7229C11.2306 17.066 11.3626 17.3695 11.6264 17.6333L15.466 21.4333C15.7035 21.6708 15.9806 21.7896 16.2973 21.7896C16.6139 21.7896 16.891 21.6708 17.1285 21.4333L24.3723 14.2292C24.6098 13.9917 24.7285 13.7014 24.7285 13.3583C24.7285 13.0153 24.5966 12.725 24.3327 12.4875C24.0952 12.2764 23.8115 12.1774 23.4817 12.1906C23.1518 12.2039 22.8813 12.316 22.6702 12.5271L16.2973 18.8604ZM12.141 32.675L9.68687 28.4792L4.77855 27.4896C4.48827 27.4368 4.24417 27.2785 4.04626 27.0146C3.84834 26.7507 3.77577 26.4736 3.82855 26.1833L4.38271 21.4333L1.25563 17.7917C1.04452 17.5805 0.938965 17.3167 0.938965 17C0.938965 16.6833 1.04452 16.4195 1.25563 16.2083L4.38271 12.6063L3.82855 7.85626C3.77577 7.56595 3.84834 7.28887 4.04626 7.02501C4.24417 6.76114 4.48827 6.60281 4.77855 6.55001L9.68687 5.56042L12.141 1.32501C12.2994 1.06111 12.5237 0.876393 12.8139 0.77084C13.1043 0.66528 13.3946 0.678477 13.6848 0.810424L17.9994 2.82917L22.3139 0.810424C22.6043 0.678477 22.8946 0.658685 23.1848 0.751049C23.4751 0.843405 23.6994 1.02153 23.8577 1.28542L26.3514 5.56042L31.2202 6.55001C31.5105 6.60281 31.7546 6.76114 31.9525 7.02501C32.1504 7.28887 32.223 7.56595 32.1702 7.85626L31.616 12.6063L34.7431 16.2083C34.9543 16.4195 35.0598 16.6833 35.0598 17C35.0598 17.3167 34.9543 17.5805 34.7431 17.7917L31.616 21.4333L32.1702 26.1833C32.223 26.4736 32.1504 26.7507 31.9525 27.0146C31.7546 27.2785 31.5105 27.4368 31.2202 27.4896L26.3514 28.4792L23.8577 32.7146C23.6994 32.9785 23.4751 33.1566 23.1848 33.249C22.8946 33.3414 22.6043 33.3216 22.3139 33.1896L17.9994 31.1708L13.6848 33.1896C13.3946 33.3216 13.1043 33.3347 12.8139 33.2292C12.5237 33.1236 12.2994 32.9389 12.141 32.675ZM13.7639 30.4979L17.9994 28.7167L22.3535 30.4979L25.0056 26.5396L29.6369 25.3521L29.1619 20.6417L32.3681 17L29.1619 13.2792L29.6369 8.56876L25.0056 7.46042L22.2744 3.50209L17.9994 5.28334L13.6452 3.50209L10.9931 7.46042L6.36188 8.56876L6.83688 13.2792L3.63063 17L6.83688 20.6417L6.36188 25.4313L10.9931 26.5396L13.7639 30.4979Z" fill="black"/>
</svg>
