<svg width="36" height="36" viewBox="0 0 36 36" fill="none" xmlns="http://www.w3.org/2000/svg">
<path d="M29.6754 7.43203C29.5488 7.29141 29.4187 7.1543 29.2887 7.0207C27.3973 5.07305 25.0031 3.61406 22.3207 2.84766C21.7898 2.69648 21.2484 2.57344 20.6965 2.47852C19.8176 2.32734 18.9176 2.25 18 2.25C13.5703 2.25 9.56602 4.07812 6.7043 7.02422C6.57422 7.15781 6.44414 7.29492 6.31758 7.43555C3.78984 10.227 2.25 13.9359 2.25 18C2.25 22.0641 3.78984 25.766 6.31406 28.5609C6.44063 28.7016 6.56719 28.8387 6.70078 28.9723C8.5957 30.9234 10.9934 32.3859 13.6828 33.1523C14.2137 33.3035 14.7551 33.4266 15.307 33.5215C16.1824 33.6727 17.0824 33.75 18 33.75C18.9176 33.75 19.8176 33.6727 20.6965 33.5215C21.2484 33.4266 21.7898 33.3035 22.3207 33.1523C25.0102 32.3895 27.4043 30.927 29.2992 28.9758C29.4293 28.8387 29.5594 28.7051 29.6859 28.5645C32.2102 25.7695 33.75 22.0641 33.75 18C33.75 13.9324 32.2066 10.227 29.6754 7.43203ZM32.1996 18.2883C32.1645 20.1059 31.7918 21.8672 31.0887 23.5301C30.477 24.9785 29.6367 26.3004 28.5891 27.4676C28.466 27.6082 28.3359 27.7453 28.2059 27.8789C28.1531 27.9352 28.0969 27.9879 28.0441 28.0441C26.7398 29.3484 25.2211 30.375 23.5301 31.0887C22.2715 31.6195 20.9602 31.9641 19.6066 32.1152C19.1672 32.1645 18.7277 32.1926 18.2812 32.1996C18.1898 32.2031 18.0949 32.2031 18 32.2031C17.9051 32.2031 17.8137 32.2031 17.7188 32.1996C17.2758 32.1926 16.8328 32.1645 16.3934 32.1152C15.0434 31.9641 13.7285 31.6195 12.4699 31.0887C10.7789 30.3715 9.26016 29.3484 7.95586 28.0441C7.89961 27.9879 7.84336 27.9316 7.79063 27.8754C7.66055 27.7418 7.53047 27.6012 7.40742 27.4641C6.35977 26.2969 5.52305 24.975 4.91133 23.5301C4.2082 21.8672 3.83555 20.1059 3.80039 18.2883H7.64297C7.64297 18.1934 7.63945 18.0984 7.63945 18C7.63945 17.9086 7.63945 17.8172 7.64297 17.7258H3.80039C3.83555 15.9047 4.2082 14.1398 4.91484 12.4734C5.52656 11.025 6.3668 9.69961 7.41797 8.53242C7.54102 8.3918 7.67109 8.25469 7.80117 8.12109C7.85391 8.06836 7.90664 8.01211 7.95937 7.95937C9.26367 6.65508 10.7824 5.62852 12.4734 4.91484C13.732 4.38398 15.0434 4.03945 16.3969 3.88828C16.8363 3.83906 17.2758 3.81094 17.7223 3.80039C17.8172 3.79688 17.9086 3.79688 18.0035 3.79688C18.0984 3.79688 18.1898 3.79688 18.2848 3.80039C18.7312 3.80742 19.1707 3.83906 19.6102 3.88828C20.9602 4.03945 22.275 4.38398 23.5301 4.91484C25.2211 5.62852 26.7398 6.65508 28.0441 7.95937C28.0969 8.01211 28.1496 8.06484 28.1988 8.11758C28.3289 8.25117 28.459 8.38828 28.582 8.52891C29.6332 9.69961 30.4734 11.0215 31.0887 12.4734C31.7918 14.1398 32.168 15.9047 32.1996 17.7258H28.357C28.357 17.8172 28.3605 17.9086 28.3605 18C28.3605 18.0949 28.3605 18.1898 28.357 18.2883H32.1996Z" fill="#39393A"/>
<path d="M27.798 18C27.798 18.0949 27.798 18.1898 27.7945 18.2883H18.2812V23.3754C18.1863 23.3719 18.0914 23.3719 17.9964 23.3719C17.905 23.3719 17.8101 23.3719 17.7187 23.3754V18.2883H8.20542C8.2019 18.1934 8.2019 18.0984 8.2019 18C8.2019 17.9086 8.2019 17.8172 8.20542 17.7258H17.7187V12.6141C17.8101 12.6141 17.905 12.6176 17.9964 12.6176C18.0914 12.6176 18.1863 12.6176 18.2812 12.6141V17.7258H27.7945C27.7945 17.8172 27.798 17.9086 27.798 18ZM18.2812 3.90586V12.048C18.1863 12.0516 18.0914 12.0516 17.9964 12.0516C17.905 12.0516 17.8101 12.0516 17.7187 12.048V3.90586C17.8136 3.86719 17.905 3.83203 18 3.79688C18.0949 3.83203 18.1863 3.8707 18.2812 3.90586ZM18.2812 23.9379V32.0941C18.1863 32.1328 18.0949 32.168 18 32.2031C17.905 32.168 17.8136 32.1293 17.7187 32.0941V23.9379C17.8101 23.9344 17.905 23.9344 17.9964 23.9344C18.0914 23.9344 18.1863 23.9344 18.2812 23.9379Z" fill="#39393A"/>
<path d="M26.3215 25.752C27.5731 23.5406 28.3078 20.9988 28.3535 18.2883C28.3535 18.1934 28.3571 18.0984 28.3571 18C28.3571 17.9086 28.3571 17.8172 28.3535 17.7258C28.3078 15.0082 27.5731 12.4559 26.3145 10.241C27.1231 9.73828 27.8789 9.16523 28.5785 8.52891C28.452 8.38828 28.3254 8.25117 28.1953 8.11758C27.5203 8.73281 26.7961 9.28125 26.0262 9.75938C24.4828 7.24922 22.2539 5.20664 19.5996 3.88828C19.1602 3.83906 18.7207 3.81094 18.2742 3.80039C18.1793 3.79687 18.0879 3.79688 17.993 3.79688C18.0879 3.83203 18.1793 3.8707 18.2742 3.90586C18.3551 3.9375 18.4324 3.97266 18.5133 4.0043C20.3203 4.7707 21.9446 5.86406 23.3403 7.25977C24.1875 8.10703 24.9223 9.03867 25.5446 10.0441C25.0172 10.3465 24.4688 10.6207 23.9028 10.8598C22.1168 11.6156 20.2254 12.0164 18.2778 12.0516C18.1828 12.0551 18.0879 12.0551 17.993 12.0551C17.9016 12.0551 17.8067 12.0551 17.7153 12.0516C15.7641 12.0164 13.8692 11.6156 12.0797 10.8598C11.5172 10.6207 10.9688 10.35 10.4414 10.0477C11.0602 9.04219 11.7985 8.10703 12.6457 7.25977C14.0414 5.86406 15.6656 4.7707 17.4727 4.0043C17.5535 3.97266 17.6309 3.9375 17.7117 3.90586C17.8067 3.86719 17.8981 3.83203 17.993 3.79688C17.8981 3.79688 17.8067 3.79687 17.7117 3.80039C17.2653 3.80742 16.8258 3.83906 16.3864 3.88828C13.7321 5.20664 11.5031 7.24922 9.95979 9.76289C9.18987 9.28477 8.46565 8.73633 7.79065 8.12109C7.66057 8.25469 7.53049 8.39531 7.40745 8.53242C8.10706 9.16875 8.86643 9.7418 9.67502 10.2445C8.41995 12.4594 7.68518 15.0082 7.63948 17.7258C7.63948 17.8172 7.63596 17.9086 7.63596 18C7.63596 18.0949 7.63596 18.1898 7.63948 18.2883C7.6887 20.9953 8.41995 23.5371 9.67151 25.7484C8.86291 26.2512 8.10354 26.8277 7.40393 27.4641C7.52698 27.6047 7.65706 27.7418 7.78713 27.8754C8.46213 27.2602 9.18635 26.7117 9.95627 26.2301C11.4996 28.7473 13.7321 30.7934 16.3899 32.1152C16.8293 32.1645 17.2688 32.1926 17.7153 32.1996C17.8102 32.2031 17.9016 32.2031 17.9965 32.2031C17.9016 32.168 17.8102 32.1293 17.7153 32.0941C17.6344 32.0625 17.5571 32.0273 17.4762 31.9957C15.6692 31.2293 14.0449 30.1359 12.6492 28.7402C11.7985 27.8895 11.0602 26.9543 10.4414 25.9453C10.9688 25.643 11.5172 25.3687 12.0832 25.1297C13.8692 24.3738 15.7641 23.973 17.7188 23.9379C17.8102 23.9344 17.9051 23.9344 17.9965 23.9344C18.0914 23.9344 18.1864 23.9344 18.2813 23.9379C20.2324 23.973 22.1239 24.3738 23.9063 25.1297C24.4758 25.3687 25.0242 25.643 25.5551 25.9488C24.9364 26.9578 24.1981 27.893 23.3473 28.7437C21.9516 30.1395 20.3274 31.2328 18.5203 31.9992C18.4395 32.0344 18.3621 32.066 18.2813 32.0977C18.1864 32.1363 18.0949 32.1715 18 32.2066C18.0949 32.2066 18.1864 32.2066 18.2813 32.2031C18.7278 32.1961 19.1672 32.168 19.6067 32.1187C22.2645 30.8004 24.4934 28.7543 26.0367 26.2371C26.8031 26.7152 27.5309 27.2672 28.2059 27.8824C28.336 27.7488 28.4625 27.6117 28.5891 27.4711C27.8895 26.8277 27.1301 26.2547 26.3215 25.752ZM18.2813 23.3754C18.1864 23.3719 18.0914 23.3719 17.9965 23.3719C17.9051 23.3719 17.8102 23.3719 17.7188 23.3754C14.9696 23.4246 12.3926 24.177 10.1567 25.4602C9.87541 24.9609 9.62229 24.4441 9.39729 23.9133C8.64143 22.1273 8.24065 20.2395 8.20549 18.2883C8.20198 18.1934 8.20198 18.0984 8.20198 18C8.20198 17.9086 8.20198 17.8172 8.20549 17.7258C8.24065 15.7711 8.64143 13.8762 9.39729 12.0902C9.62229 11.5559 9.87893 11.0355 10.1637 10.5328C12.3961 11.816 14.9731 12.5684 17.7188 12.6141C17.8102 12.6141 17.9051 12.6176 17.9965 12.6176C18.0914 12.6176 18.1864 12.6176 18.2813 12.6141C21.027 12.5648 23.6039 11.8125 25.8364 10.5293C26.1211 11.032 26.3778 11.5523 26.6028 12.0902C27.3586 13.8797 27.7594 15.7746 27.7946 17.7258C27.7946 17.8172 27.7981 17.9086 27.7981 18C27.7981 18.0949 27.7981 18.1898 27.7946 18.2883C27.7594 20.2359 27.3586 22.1273 26.6028 23.9133C26.3778 24.4477 26.1246 24.9645 25.8399 25.4637C23.6074 24.177 21.0305 23.4246 18.2813 23.3754Z" fill="#E7B343"/>
</svg>
