<svg width="32" height="32" viewBox="0 0 32 32" fill="none" xmlns="http://www.w3.org/2000/svg">
<path d="M16 12.8842L15.1916 13.6496C15.4018 13.8717 15.6942 13.9976 16 13.9976C16.3058 13.9976 16.5982 13.8717 16.8084 13.6496L16 12.8842ZM14.8922 20.1096C13.953 19.3571 13.0424 18.7073 12.3125 17.8719C11.6207 17.08 11.1758 16.2053 11.1758 15.0791H8.94922C8.94922 16.8881 9.69754 18.2629 10.6357 19.3369C11.5359 20.3673 12.692 21.1996 13.4999 21.8471L14.8922 20.1096ZM11.1758 15.0791C11.1758 14.0179 11.7646 13.1735 12.4985 12.8324C13.157 12.5264 14.1387 12.5376 15.1916 13.6496L16.8084 12.1188C15.1895 10.409 13.2025 10.0501 11.5602 10.8132C9.99322 11.5413 8.94922 13.2051 8.94922 15.0791H11.1758ZM13.4999 21.8471C13.7978 22.0858 14.1601 22.3758 14.538 22.6003C14.9149 22.8243 15.4159 23.0508 16 23.0508V20.8242C15.9904 20.8242 15.8976 20.8181 15.6751 20.686C15.4535 20.5544 15.2108 20.365 14.8922 20.1096L13.4999 21.8471ZM18.5001 21.8471C19.3081 21.1996 20.4641 20.3673 21.3642 19.3369C22.3025 18.2629 23.0508 16.8881 23.0508 15.0791H20.8242C20.8242 16.2053 20.3792 17.08 19.6875 17.8719C18.9576 18.7073 18.047 19.3571 17.1078 20.1096L18.5001 21.8471ZM23.0508 15.0791C23.0508 13.2051 22.0068 11.5413 20.4398 10.8132C18.7975 10.0501 16.8105 10.409 15.1916 12.1188L16.8084 13.6496C17.8613 12.5376 18.843 12.5264 19.5015 12.8324C20.2354 13.1735 20.8242 14.0179 20.8242 15.0791H23.0508ZM17.1078 20.1096C16.7892 20.365 16.5465 20.5544 16.3249 20.686C16.1024 20.8181 16.0096 20.8242 16 20.8242V23.0508C16.5841 23.0508 17.0851 22.8243 17.462 22.6003C17.8399 22.3758 18.2022 22.0858 18.5001 21.8471L17.1078 20.1096Z" fill="black"/>
<path d="M16 1.15625V4.125" stroke="black" stroke-width="2" stroke-linecap="round"/>
<path d="M16 27.875V30.8437" stroke="black" stroke-width="2" stroke-linecap="round"/>
<path d="M1.15625 16H4.125" stroke="black" stroke-width="2" stroke-linecap="round"/>
<path d="M27.875 16H30.8437" stroke="black" stroke-width="2" stroke-linecap="round"/>
<path d="M7.09375 24.9062L7.60296 24.3971" stroke="black" stroke-width="2" stroke-linecap="round"/>
<path d="M24.3967 7.60401L24.9063 7.09448" stroke="black" stroke-width="2" stroke-linecap="round"/>
<path d="M24.9062 24.9062L24.3971 24.3971" stroke="black" stroke-width="2" stroke-linecap="round"/>
<path d="M7.60328 7.60401L7.09375 7.09448" stroke="black" stroke-width="2" stroke-linecap="round"/>
</svg>
