<svg width="34" height="34" viewBox="0 0 34 34" fill="none" xmlns="http://www.w3.org/2000/svg">
<path d="M19.1113 2.11995C24.5375 4.5282 28.6505 7.69245 30.7767 9.5202C31.8515 10.4442 32.4508 11.7739 32.5243 13.1892C32.627 15.1324 32.75 18.1737 32.75 21.4999C32.75 24.6777 32.6375 27.7197 32.5385 29.7784C32.5061 30.4995 32.2037 31.182 31.6915 31.6905C31.1792 32.199 30.4945 32.4963 29.7732 32.5234C27.2517 32.6262 22.9445 32.7499 17 32.7499C11.0547 32.7499 6.7475 32.6254 4.226 32.5242C2.726 32.4642 1.5335 31.2784 1.46075 29.7784C1.32653 27.0209 1.25626 24.2607 1.25 21.4999C1.25 18.1737 1.37375 15.1324 1.475 13.1892C1.55 11.7739 2.1485 10.4442 3.22325 9.5202C5.3495 7.6917 9.46325 4.5282 14.8887 2.11995C15.5535 1.825 16.2727 1.67261 17 1.67261C17.7273 1.67261 18.4465 1.825 19.1113 2.11995Z" stroke="black" stroke-width="2" stroke-linejoin="round"/>
<path d="M27.9103 32.591C28.0633 30.9635 28.25 28.088 28.25 23.75C28.25 20.1485 28.121 17.8078 27.9905 16.3565C27.8712 15.0433 27.005 14.0172 25.7045 13.7975C24.1145 13.5275 21.407 13.25 17 13.25C12.5938 13.25 9.88625 13.5275 8.2955 13.7975C6.995 14.0172 6.128 15.0425 6.0095 16.3565C5.87825 17.8078 5.75 20.1485 5.75 23.75C5.75 28.088 5.93675 30.9635 6.08975 32.591" stroke="black" stroke-width="2" stroke-linejoin="round"/>
<path d="M9.54726 24.3545C9.59226 23.6825 10.0535 23.1815 10.724 23.1095C11.273 23.0495 12.083 23 13.25 23C14.417 23 15.227 23.0502 15.776 23.1095C16.4465 23.1815 16.9085 23.6825 16.9535 24.3545C16.9798 24.7557 17 25.2927 17 26C17 26.7073 16.9798 27.2443 16.9528 27.6455C16.9078 28.3175 16.4465 28.8185 15.776 28.8905C15.227 28.9505 14.417 29 13.25 29C12.083 29 11.273 28.9498 10.724 28.8905C10.0535 28.8185 9.59151 28.3175 9.54651 27.6455C9.51288 27.0977 9.49737 26.5489 9.50001 26C9.50001 25.2927 9.52026 24.7557 9.54726 24.3545Z" stroke="#E7B343" stroke-width="2" stroke-linejoin="round"/>
<path d="M17.0473 24.3545C17.0923 23.6825 17.5535 23.1815 18.224 23.1095C18.773 23.0495 19.583 23 20.75 23C21.917 23 22.727 23.0502 23.276 23.1095C23.9465 23.1815 24.4085 23.6825 24.4535 24.3545C24.4798 24.7557 24.5 25.2927 24.5 26C24.5 26.7073 24.4798 27.2443 24.4528 27.6455C24.4078 28.3175 23.9465 28.8185 23.276 28.8905C22.727 28.9505 21.917 29 20.75 29C19.583 29 18.773 28.9498 18.224 28.8905C17.5535 28.8185 17.0915 28.3175 17.0465 27.6455C17.0129 27.0977 16.9974 26.5489 17 26C17 25.2927 17.0203 24.7557 17.0473 24.3545Z" stroke="#E7B343" stroke-width="2" stroke-linejoin="round"/>
<path d="M13.2973 18.3545C13.3423 17.6825 13.8035 17.1815 14.474 17.1095C15.023 17.0495 15.833 17 17 17C18.167 17 18.977 17.0502 19.526 17.1095C20.1965 17.1815 20.6585 17.6825 20.7035 18.3545C20.7298 18.7557 20.75 19.2927 20.75 20C20.75 20.7073 20.7298 21.2443 20.7028 21.6455C20.6578 22.3175 20.1965 22.8185 19.526 22.8905C18.977 22.9505 18.167 23 17 23C15.833 23 15.023 22.9498 14.474 22.8905C13.8035 22.8185 13.3415 22.3175 13.2965 21.6455C13.2629 21.0977 13.2474 20.5489 13.25 20C13.25 19.2927 13.2703 18.7557 13.2973 18.3545Z" stroke="#E7B343" stroke-width="2" stroke-linejoin="round"/>
</svg>
