<svg width="34" height="34" viewBox="0 0 34 34" fill="none" xmlns="http://www.w3.org/2000/svg">
<path d="M26.75 23.75H19.25" stroke="black" stroke-width="2" stroke-linecap="round" stroke-linejoin="round"/>
<path d="M26.75 27.5H19.25" stroke="black" stroke-width="2" stroke-linecap="round" stroke-linejoin="round"/>
<path d="M28.625 9.5H20.375" stroke="black" stroke-width="2" stroke-linecap="round" stroke-linejoin="round"/>
<path d="M16.25 1.99991C14.1793 1.06016 11.6345 0.941658 8.75 1.99991C5.8655 3.05816 3.32075 2.93966 1.25 1.99991" stroke="#E7B343" stroke-width="2" stroke-linecap="round" stroke-linejoin="round"/>
<path d="M16.25 6.49991C14.1793 5.56016 11.6345 5.44166 8.75 6.49991C5.8655 7.55816 3.32075 7.43966 1.25 6.49991" stroke="#E7B343" stroke-width="2" stroke-linecap="round" stroke-linejoin="round"/>
<path d="M1.25 19.934C1.25 18.4452 1.80275 17.006 2.96225 16.073C4.63475 14.7267 7.5425 12.746 11.7358 11.1402C13.0888 10.6212 14.5017 11.606 14.5632 13.0535C14.6232 14.489 14.6893 16.3722 14.7238 18.4685H30.5015C30.7969 18.4685 31.0894 18.5267 31.3623 18.6398C31.6352 18.7529 31.8831 18.9186 32.092 19.1276C32.3008 19.3365 32.4664 19.5846 32.5793 19.8576C32.6922 20.1305 32.7502 20.4231 32.75 20.7185V25.5935C32.75 27.488 32.6308 28.9497 32.4875 30.0237C32.2925 31.4787 31.0625 32.4447 29.5955 32.5055C27.2637 32.6022 23.1665 32.7192 17 32.7192C10.8335 32.7192 6.73625 32.6022 4.4045 32.5055C2.9375 32.4447 1.70675 31.4795 1.5125 30.0237C1.37 28.9497 1.25 27.488 1.25 25.595V19.934Z" stroke="black" stroke-width="2" stroke-linecap="round" stroke-linejoin="round"/>
<path d="M13.2215 32.7348C13.238 31.9758 13.25 30.9986 13.25 29.7498C13.25 27.9498 13.2253 26.7123 13.1968 25.8821C13.1623 24.8868 12.6568 23.9996 11.672 23.8473C11.2012 23.7786 10.7258 23.746 10.25 23.7498C9.674 23.7498 9.206 23.7888 8.828 23.8473C7.84325 23.9996 7.33775 24.8868 7.30325 25.8821C7.26363 27.1709 7.24587 28.4603 7.25 29.7498C7.25 30.9438 7.2605 31.8896 7.27625 32.6336" stroke="black" stroke-width="2" stroke-linecap="round" stroke-linejoin="round"/>
<path d="M19.25 18.5C19.6514 14.1367 20.1121 9.77902 20.6323 5.42825C20.7455 4.48475 21.446 3.72275 22.391 3.6185C23.0913 3.54082 23.7954 3.50126 24.5 3.5C25.2875 3.5 26.0135 3.55325 26.609 3.6185C27.554 3.7235 28.2545 4.48475 28.3678 5.42825C28.8879 9.77902 29.3486 14.1367 29.75 18.5" stroke="black" stroke-width="2" stroke-linecap="round" stroke-linejoin="round"/>
</svg>
