<svg width="36" height="36" viewBox="0 0 36 36" fill="none" xmlns="http://www.w3.org/2000/svg">
<path d="M1.28571 8.98376H34.7143" stroke="black" stroke-width="2" stroke-linecap="round" stroke-linejoin="round"/>
<path d="M32.1428 1.28577H3.85713C2.43697 1.28577 1.28571 2.43703 1.28571 3.8572V32.1429C1.28571 33.5631 2.43697 34.7143 3.85713 34.7143H32.1428C33.563 34.7143 34.7143 33.5631 34.7143 32.1429V3.8572C34.7143 2.43703 33.563 1.28577 32.1428 1.28577Z" stroke="black" stroke-width="2" stroke-linecap="round" stroke-linejoin="round"/>
<path d="M18 29.5715C22.2605 29.5715 25.7143 26.1178 25.7143 21.8572C25.7143 17.5968 22.2605 14.1429 18 14.1429C13.7395 14.1429 10.2857 17.5968 10.2857 21.8572C10.2857 26.1178 13.7395 29.5715 18 29.5715Z" stroke="#E7B343" stroke-width="2" stroke-linecap="round" stroke-linejoin="round"/>
<path d="M23.4593 27.3166L12.5406 16.3979" stroke="#E7B343" stroke-width="2" stroke-linecap="round" stroke-linejoin="round"/>
</svg>
