<svg width="32" height="32" viewBox="0 0 32 32" fill="none" xmlns="http://www.w3.org/2000/svg">
<path d="M5.60938 10.0625C5.60938 5.86405 5.60938 3.76483 6.91367 2.46054C8.21796 1.15625 10.3172 1.15625 14.5156 1.15625H17.4844C21.6828 1.15625 23.782 1.15625 25.0863 2.46054C26.3906 3.76483 26.3906 5.86405 26.3906 10.0625V21.9375C26.3906 26.1359 26.3906 28.2351 25.0863 29.5394C23.782 30.8437 21.6828 30.8438 17.4844 30.8438H14.5156C10.3172 30.8438 8.21796 30.8437 6.91367 29.5394C5.60938 28.2351 5.60938 26.1359 5.60938 21.9375V10.0625Z" stroke="black" stroke-width="2"/>
<path d="M26.3906 27.1328C27.0801 27.1328 27.4249 27.1328 27.7134 27.0871C29.3012 26.8356 30.5466 25.5902 30.798 24.0024C30.8438 23.714 30.8438 23.3692 30.8438 22.6797V9.32031C30.8438 8.63082 30.8438 8.28607 30.798 7.9976C30.5466 6.40972 29.3012 5.16437 27.7134 4.91288C27.4249 4.86719 27.0801 4.86719 26.3906 4.86719" stroke="black" stroke-width="2"/>
<path d="M13.1302 17.3854C13.1302 18.1728 13.443 18.9279 13.9998 19.4847C14.5565 20.0414 15.3116 20.3542 16.099 20.3542C16.8864 20.3542 17.6415 20.0414 18.1982 19.4847C18.755 18.9279 19.0677 18.1728 19.0677 17.3854C19.0677 16.5981 18.755 15.843 18.1982 15.2862C17.6415 14.7295 16.8864 14.4167 16.099 14.4167C15.3116 14.4167 14.5565 14.7295 13.9998 15.2862C13.443 15.843 13.1302 16.5981 13.1302 17.3854Z" stroke="black" stroke-width="2"/>
<path d="M20.4531 13.0312C18.8135 13.0312 17.4844 11.7021 17.4844 10.0625" stroke="black" stroke-width="2" stroke-linecap="round"/>
<path d="M5.60938 27.1328C4.91988 27.1328 4.57514 27.1328 4.28666 27.0871C2.69878 26.8356 1.45344 25.5902 1.20194 24.0024C1.15625 23.714 1.15625 23.3692 1.15625 22.6797V9.32031C1.15625 8.63082 1.15625 8.28607 1.20194 7.9976C1.45344 6.40972 2.69878 5.16437 4.28666 4.91288C4.57514 4.86719 4.91988 4.86719 5.60938 4.86719" stroke="black" stroke-width="2"/>
</svg>
